<svg width="264" height="156" viewBox="0 0 264 156" fill="none" xmlns="http://www.w3.org/2000/svg">
<path d="M41.472 33.056C56.352 33.056 67.776 35.696 75.744 40.976C83.712 46.16 87.696 54.704 87.696 66.608C87.696 78.608 83.664 87.296 75.6 92.672C67.536 97.952 56.016 100.592 41.04 100.592H33.984V134H11.52V35.648C16.416 34.688 21.6 34.016 27.072 33.632C32.544 33.248 37.344 33.056 41.472 33.056ZM42.912 52.208C41.28 52.208 39.648 52.256 38.016 52.352C36.48 52.448 35.136 52.544 33.984 52.64V81.44H41.04C48.816 81.44 54.672 80.384 58.608 78.272C62.544 76.16 64.512 72.224 64.512 66.464C64.512 63.68 63.984 61.376 62.928 59.552C61.968 57.728 60.528 56.288 58.608 55.232C56.784 54.08 54.528 53.312 51.84 52.928C49.152 52.448 46.176 52.208 42.912 52.208ZM161.164 134C160.108 130.544 158.908 126.992 157.564 123.344C156.316 119.696 155.068 116.048 153.82 112.4H114.94C113.692 116.048 112.396 119.696 111.052 123.344C109.804 126.992 108.652 130.544 107.596 134H84.2681C88.0121 123.248 91.5641 113.312 94.9241 104.192C98.2841 95.072 101.548 86.48 104.716 78.416C107.98 70.352 111.148 62.72 114.22 55.52C117.388 48.224 120.652 41.12 124.012 34.208H145.468C148.732 41.12 151.948 48.224 155.116 55.52C158.284 62.72 161.452 70.352 164.62 78.416C167.884 86.48 171.196 95.072 174.556 104.192C177.916 113.312 181.468 123.248 185.212 134H161.164ZM134.236 56.816C133.756 58.256 133.036 60.224 132.076 62.72C131.116 65.216 130.012 68.096 128.764 71.36C127.516 74.624 126.124 78.224 124.588 82.16C123.148 86.096 121.66 90.224 120.124 94.544H148.492C146.956 90.224 145.468 86.096 144.028 82.16C142.588 78.224 141.196 74.624 139.852 71.36C138.604 68.096 137.5 65.216 136.54 62.72C135.58 60.224 134.812 58.256 134.236 56.816Z" fill="black"/>
<rect x="11" y="56" width="25" height="25" fill="white"/>
<rect x="6" y="53" width="30" height="10" fill="white"/>
<rect x="121" y="94" width="17" height="20" fill="white"/>
<rect x="123.449" y="84.0613" width="15" height="38" transform="rotate(16.4171 123.449 84.0613)" fill="white"/>
</svg>
